<svg width="135" height="54" viewBox="0 0 135 54" xmlns="http://www.w3.org/2000/svg">
  <defs>
    <linearGradient id="grad" x1="0%" y1="0%" x2="0%" y2="100%">
      <stop offset="0%" style="stop-color:#fde08d;stop-opacity:1" />
      <stop offset="50%" style="stop-color:#b2822b;stop-opacity:1" />
      <stop offset="100%" style="stop-color:#8a641b;stop-opacity:1" />
    </linearGradient>
    <linearGradient id="gloss" x1="0%" y1="0%" x2="0%" y2="100%">
      <stop offset="0%" style="stop-color:#ffffff;stop-opacity:0.6" />
      <stop offset="100%" style="stop-color:#ffffff;stop-opacity:0" />
    </linearGradient>
  </defs>
  <rect x="4" y="4" width="127" height="46" rx="8" fill="url(#grad)" stroke="#5c3d05" stroke-width="1.5"/>
  <rect x="6" y="6" width="123" height="21" rx="5" fill="url(#gloss)"/>
  <g transform="translate(8, 27) scale(0.95)">
    <path d="M0 -11 C6 -11 10 -7 10 0 C10 7 6 11 0 11 H-2 V-11 Z" fill="#1a1102"/>
    <path d="M12 -11 C18 -11 22 -7 22 0 C22 7 18 11 12 11 H10 V-11 Z" fill="#1a1102"/>
  </g>
  <line x1="38" y1="12" x2="38" y2="42" stroke="#5c3d05" stroke-width="1.2" opacity="0.5"/>
  <text x="44" y="27" fill="#1a1102" font-family="Arial Black, sans-serif" font-size="26" font-weight="900" style="letter-spacing: -1.2px;">Dolby</text>
  <text x="44" y="43" fill="#1a1102" font-family="Arial, sans-serif" font-size="13" font-weight="900" style="letter-spacing: 2px;">VISION</text>
</svg>

